<svg width="87" height="131" viewBox="0 0 87 131" fill="none" xmlns="http://www.w3.org/2000/svg">
<path d="M30.3312 61.2724C29.3283 61.1871 28.7149 62.1007 27.9453 62.4835C12.3147 70.2587 -1.28674 53.324 0.692126 38.2841C3.30422 18.4313 20.9041 1.93706 40.9031 0.622834C73.461 -1.51657 99.2246 24.5878 79.1991 55.7147C74.5276 62.976 65.8666 70.9205 63.8088 79.1514C63.614 79.9301 63.6205 80.8451 63.4286 81.6068C62.5094 85.2524 61.7241 89.0086 59.5893 92.1769C60.6354 93.8556 62.1453 95.0902 63.227 96.7596C70.7444 108.359 65.5874 123.891 52.6944 128.677C37.1523 134.446 21.4822 121.556 23.8142 105.25C24.4989 100.462 26.9934 96.3811 30.117 92.794C29.1924 91.1757 28.0378 89.6497 27.3922 87.878C26.1089 84.3555 26.485 80.5439 26.8431 76.8682C27.3629 71.5326 28.5978 66.3254 30.3312 61.2724ZM44.0729 39.677C41.4344 39.8982 40.1734 42.3655 39.713 44.692C39.9468 44.9462 41.5585 43.1957 41.7871 42.9512C42.1523 42.5607 44.3901 40.0204 44.0729 39.677Z" fill="#FBD11E"/>
<path d="M62.9433 7.80657L63.1942 8.13965C81.0419 15.999 87.3266 32.6844 77.7163 50.2348C73.3206 58.2626 65.9633 64.8043 61.8141 72.7232C58.9638 78.1629 59.3976 84.6599 56.2225 90.0352C55.8945 90.5908 54.1372 92.6035 54.1054 92.9431C54.0535 93.4976 55.8631 94.3775 56.3067 94.7577C66.1605 103.203 64.1306 119.399 52.1577 124.579C35.4857 131.793 20.0727 112.771 30.4628 98.0857C31.9184 96.0283 33.8181 94.6687 35.7485 93.123C34.4522 91.9571 33.1308 90.7673 32.1837 89.2755C29.7504 85.4432 29.94 82.0356 30.3012 77.6381C31.1364 67.4718 35.1762 56.7086 41.436 48.6896C43.4498 46.11 49.6802 40.2305 49.9147 37.2513C49.9777 36.4519 49.678 35.7748 48.8526 35.5244C46.1566 34.7064 41.3972 35.6647 39.1332 37.3914C36.019 39.7666 34.5922 47.9183 32.5623 51.7608C22.3982 71.0022 -0.470646 55.4276 5.05783 34.9446C12.1053 8.83395 38.3731 -2.07074 62.9433 7.80657ZM66.8598 53.8874C74.7696 43.1674 79.9953 30.0047 68.3684 19.4987C56.2215 8.52312 33.9961 8.72467 21.8954 19.7168C16.2771 24.8206 9.92886 36.4929 11.4198 44.164C12.7303 50.9073 20.0592 57.5726 25.3719 50.0232C28.9626 44.9207 28.8579 37.4568 33.5622 32.9106C38.8643 27.7867 52.7523 25.3965 56.3445 33.4858C59.5686 40.7468 51.7498 47.1142 47.7445 51.9526C41.9266 58.9804 38.5918 67.9813 37.5245 77.0086C37.0841 80.7333 36.4457 83.7583 39.1306 86.6909C41.9512 89.7717 45.8575 91.6902 49.0633 87.893C52.0925 84.3052 52.1193 79.3993 53.2603 75.0759C55.3463 67.1721 62.1223 60.308 66.8598 53.8874ZM43.5615 97.878C30.2244 99.1999 31.8792 119.831 45.4557 119.186C59.2534 118.53 58.8486 96.3631 43.5615 97.878Z" fill="black"/>
<path d="M66.8599 53.8854C62.1224 60.306 55.3465 67.1701 53.2605 75.074C52.1195 79.3973 52.0924 84.3033 49.0635 87.891C45.8574 91.6882 41.9514 89.7698 39.1308 86.6889C36.4458 83.7564 37.0843 80.7314 37.5247 77.0066C38.592 67.9794 41.9267 58.9785 47.7447 51.9506C51.7499 47.1123 59.5688 40.7447 56.3446 33.4838C52.7525 25.3945 38.8644 27.7848 33.5624 32.9086C28.858 37.4549 28.9629 44.9188 25.3721 50.0213C20.0593 57.5707 12.7306 50.9054 11.4199 44.1621C9.92899 36.4908 16.277 24.8185 21.8955 19.7149C33.9962 8.72275 56.2216 8.5212 68.3685 19.4968C79.9957 30.003 74.7699 43.1655 66.8599 53.8854Z" fill="#FBD11E"/>
<path d="M43.5613 97.8789C58.8484 96.3638 59.2533 118.531 45.4555 119.187C31.879 119.832 30.2243 99.2008 43.5613 97.8789Z" fill="#FBD11E"/>
</svg>
